<svg width="32" height="32" viewBox="0 0 32 32" fill="none" xmlns="http://www.w3.org/2000/svg">
<path fill-rule="evenodd" clip-rule="evenodd" d="M3 8C3 6.93913 3.42143 5.92172 4.17157 5.17157C4.92172 4.42143 5.93913 4 7 4H25C26.0609 4 27.0783 4.42143 27.8284 5.17157C28.5786 5.92172 29 6.93913 29 8V24C29 25.0609 28.5786 26.0783 27.8284 26.8284C27.0783 27.5786 26.0609 28 25 28H7C5.93913 28 4.92172 27.5786 4.17157 26.8284C3.42143 26.0783 3 25.0609 3 24V8ZM27 12H5V24C5 24.5304 5.21071 25.0391 5.58579 25.4142C5.96086 25.7893 6.46957 26 7 26H25C25.5304 26 26.0391 25.7893 26.4142 25.4142C26.7893 25.0391 27 24.5304 27 24V12ZM7 7C6.73478 7 6.48043 7.10536 6.29289 7.29289C6.10536 7.48043 6 7.73478 6 8V8.01067C6 8.56267 6.448 9.01067 7 9.01067H7.01067C7.27588 9.01067 7.53024 8.90531 7.71777 8.71777C7.90531 8.53024 8.01067 8.27588 8.01067 8.01067V8C8.01067 7.73478 7.90531 7.48043 7.71777 7.29289C7.53024 7.10536 7.27588 7 7.01067 7H7ZM9 8C9 7.73478 9.10536 7.48043 9.29289 7.29289C9.48043 7.10536 9.73478 7 10 7H10.0107C10.2759 7 10.5302 7.10536 10.7178 7.29289C10.9053 7.48043 11.0107 7.73478 11.0107 8V8.01067C11.0107 8.27588 10.9053 8.53024 10.7178 8.71777C10.5302 8.90531 10.2759 9.01067 10.0107 9.01067H10C9.73478 9.01067 9.48043 8.90531 9.29289 8.71777C9.10536 8.53024 9 8.27588 9 8.01067V8ZM13 7C12.7348 7 12.4804 7.10536 12.2929 7.29289C12.1054 7.48043 12 7.73478 12 8V8.01067C12 8.56267 12.448 9.01067 13 9.01067H13.0107C13.2759 9.01067 13.5302 8.90531 13.7178 8.71777C13.9053 8.53024 14.0107 8.27588 14.0107 8.01067V8C14.0107 7.73478 13.9053 7.48043 13.7178 7.29289C13.5302 7.10536 13.2759 7 13.0107 7H13Z" fill="white"/>
<path d="M12.073 20.2028H10.6341L10.4207 20.951H9L10.5792 16H12.1401L13.7132 20.951H12.2864L12.073 20.2028ZM11.7438 19.035L11.3535 17.6573L10.9633 19.035H11.7438Z" fill="white"/>
<path d="M15.3743 19.3776V20.951H14.0207V16H15.9109C16.4393 16 16.8437 16.1538 17.1242 16.4615C17.4087 16.7692 17.551 17.1818 17.551 17.6993C17.551 18.0117 17.488 18.296 17.362 18.5524C17.236 18.8042 17.049 19.0047 16.8011 19.1538C16.5572 19.303 16.2604 19.3776 15.9109 19.3776H15.3743ZM15.7584 18.1538C16.0389 18.1538 16.1791 18.0023 16.1791 17.6993C16.1791 17.3963 16.0389 17.2448 15.7584 17.2448H15.3743V18.1538H15.7584Z" fill="white"/>
<path d="M19.3339 16V20.951H17.9803V16H19.3339Z" fill="white"/>
<path d="M21.2989 16.958C21.7663 16.958 22.1383 17.0886 22.4147 17.3497C22.6951 17.6061 22.872 17.9464 22.9451 18.3706H21.683C21.6302 18.1469 21.4919 18.035 21.2684 18.035C21.1424 18.035 21.0794 18.0909 21.0794 18.2028C21.0794 18.2821 21.1241 18.3427 21.2135 18.3846C21.307 18.4266 21.4533 18.4709 21.6525 18.5175C21.9127 18.5734 22.1342 18.641 22.3171 18.7203C22.5041 18.7949 22.6647 18.9184 22.7988 19.0909C22.9329 19.2634 23 19.4988 23 19.7972C23 20.0303 22.9431 20.2378 22.8293 20.4196C22.7155 20.6014 22.5488 20.7436 22.3293 20.8462C22.1098 20.9487 21.8517 21 21.555 21C21.059 21 20.6648 20.8788 20.3721 20.6364C20.0794 20.3939 19.8985 20.0443 19.8294 19.5874H21.1281C21.1525 19.8159 21.2928 19.9301 21.5489 19.9301C21.6871 19.9301 21.7562 19.8741 21.7562 19.7622C21.7562 19.6737 21.7094 19.6084 21.6159 19.5664C21.5224 19.5245 21.372 19.4825 21.1647 19.4406C20.9005 19.38 20.681 19.3147 20.5062 19.2448C20.3355 19.1748 20.1851 19.0559 20.055 18.8881C19.925 18.7203 19.8599 18.4895 19.8599 18.1958C19.8599 17.958 19.9148 17.7459 20.0245 17.5594C20.1343 17.373 20.2969 17.2261 20.5123 17.1189C20.7278 17.0117 20.9899 16.958 21.2989 16.958Z" fill="white"/>
</svg>
