<svg width="28" height="28" viewBox="0 0 28 28" fill="none" xmlns="http://www.w3.org/2000/svg">
<path d="M5.25 5.25C4.32174 5.25 3.4315 5.61875 2.77513 6.27513C2.11875 6.9315 1.75 7.82174 1.75 8.75V19.25C1.75 20.1783 2.11875 21.0685 2.77513 21.7249C3.4315 22.3813 4.32174 22.75 5.25 22.75H14.875C15.8033 22.75 16.6935 22.3813 17.3499 21.7249C18.0063 21.0685 18.375 20.1783 18.375 19.25V8.75C18.375 7.82174 18.0063 6.9315 17.3499 6.27513C16.6935 5.61875 15.8033 5.25 14.875 5.25H5.25ZM23.2633 21.875L20.125 18.7367V9.26333L23.2633 6.125C24.3647 5.0225 26.25 5.803 26.25 7.36167V20.6383C26.25 22.197 24.3647 22.9775 23.2633 21.875Z" fill="white"/>
</svg>
