<svg width="32" height="32" viewBox="0 0 32 32" fill="none" xmlns="http://www.w3.org/2000/svg">
<path fill-rule="evenodd" clip-rule="evenodd" d="M3 8C3 6.93913 3.42143 5.92172 4.17157 5.17157C4.92172 4.42143 5.93913 4 7 4H25C26.0609 4 27.0783 4.42143 27.8284 5.17157C28.5786 5.92172 29 6.93913 29 8V24C29 25.0609 28.5786 26.0783 27.8284 26.8284C27.0783 27.5786 26.0609 28 25 28H7C5.93913 28 4.92172 27.5786 4.17157 26.8284C3.42143 26.0783 3 25.0609 3 24V8ZM8.29333 9.29333C8.48083 9.10607 8.735 9.00088 9 9.00088C9.265 9.00088 9.51917 9.10607 9.70667 9.29333L12.7067 12.2933C12.8939 12.4808 12.9991 12.735 12.9991 13C12.9991 13.265 12.8939 13.5192 12.7067 13.7067L9.70667 16.7067C9.5171 16.8833 9.26637 16.9795 9.0073 16.9749C8.74824 16.9703 8.50105 16.8654 8.31784 16.6822C8.13462 16.4989 8.02967 16.2518 8.0251 15.9927C8.02053 15.7336 8.11669 15.4829 8.29333 15.2933L10.5867 13L8.29333 10.7067C8.10607 10.5192 8.00088 10.265 8.00088 10C8.00088 9.735 8.10607 9.48083 8.29333 9.29333ZM14 15C13.7348 15 13.4804 15.1054 13.2929 15.2929C13.1054 15.4804 13 15.7348 13 16C13 16.2652 13.1054 16.5196 13.2929 16.7071C13.4804 16.8946 13.7348 17 14 17H18C18.2652 17 18.5196 16.8946 18.7071 16.7071C18.8946 16.5196 19 16.2652 19 16C19 15.7348 18.8946 15.4804 18.7071 15.2929C18.5196 15.1054 18.2652 15 18 15H14Z" fill="white"/>
</svg>
