<svg width="25" height="24" viewBox="0 0 25 24" fill="none" xmlns="http://www.w3.org/2000/svg">
<path fill-rule="evenodd" clip-rule="evenodd" d="M2.50748 5.25C2.50748 4.45435 2.82355 3.69129 3.38616 3.12868C3.94877 2.56607 4.71183 2.25 5.50748 2.25H19.0075C19.8031 2.25 20.5662 2.56607 21.1288 3.12868C21.6914 3.69129 22.0075 4.45435 22.0075 5.25V15C22.0075 15.7956 21.6914 16.5587 21.1288 17.1213C20.5662 17.6839 19.8031 18 19.0075 18H16.0075V18.257C16.0075 18.854 16.2445 19.427 16.6665 19.848L17.2875 20.47C17.3922 20.5749 17.4636 20.7085 17.4924 20.8539C17.5213 20.9993 17.5065 21.15 17.4498 21.2869C17.3931 21.4239 17.297 21.541 17.1738 21.6234C17.0506 21.7058 16.9057 21.7499 16.7575 21.75H7.75748C7.60924 21.7499 7.46436 21.7058 7.34114 21.6234C7.21793 21.541 7.1219 21.4239 7.06519 21.2869C7.00848 21.15 6.99363 20.9993 7.02251 20.8539C7.0514 20.7085 7.12272 20.5749 7.22748 20.47L7.84848 19.848C8.27019 19.4263 8.50722 18.8544 8.50748 18.258V18H5.50748C4.71183 18 3.94877 17.6839 3.38616 17.1213C2.82355 16.5587 2.50748 15.7956 2.50748 15V5.25ZM4.00748 5.25V12.75C4.00748 13.1478 4.16551 13.5294 4.44682 13.8107C4.72812 14.092 5.10965 14.25 5.50748 14.25H19.0075C19.4053 14.25 19.7868 14.092 20.0681 13.8107C20.3494 13.5294 20.5075 13.1478 20.5075 12.75V5.25C20.5075 4.85218 20.3494 4.47064 20.0681 4.18934C19.7868 3.90804 19.4053 3.75 19.0075 3.75H5.50748C5.10965 3.75 4.72812 3.90804 4.44682 4.18934C4.16551 4.47064 4.00748 4.85218 4.00748 5.25Z" fill="#FF782C"/>
</svg>
