<svg width="20" height="20" viewBox="0 0 20 20" fill="none" xmlns="http://www.w3.org/2000/svg">
<path d="M10 0.625C8.48714 0.62466 7.01639 1.12336 5.81572 2.0438C4.61505 2.96424 3.75151 4.25502 3.35895 5.71609C2.96639 7.17715 3.06673 8.72691 3.64441 10.1252C4.22209 11.5234 5.24486 12.6921 6.55419 13.45C7.12585 13.7817 7.48335 14.29 7.49919 14.8025C7.50356 14.9398 7.55302 15.0718 7.63994 15.1781C7.72685 15.2845 7.84637 15.3592 7.98002 15.3908C8.27336 15.46 8.57169 15.5142 8.87502 15.5533C9.14419 15.5875 9.37502 15.3717 9.37502 15.1V11.2158C9.1117 11.1869 8.85076 11.1393 8.59419 11.0733C8.51468 11.0529 8.43999 11.0169 8.37437 10.9676C8.30875 10.9183 8.25348 10.8565 8.21174 10.7858C8.16999 10.7151 8.14257 10.6369 8.13105 10.5556C8.11954 10.4743 8.12414 10.3916 8.14461 10.3121C8.16507 10.2326 8.20099 10.1579 8.25032 10.0923C8.29966 10.0266 8.36143 9.97138 8.43212 9.92963C8.50281 9.88788 8.58103 9.86047 8.66231 9.84895C8.74359 9.83743 8.82635 9.84204 8.90585 9.8625C9.62357 10.0475 10.3765 10.0475 11.0942 9.8625C11.1745 9.83936 11.2586 9.83256 11.3416 9.84251C11.4246 9.85245 11.5047 9.87894 11.5773 9.92039C11.6498 9.96185 11.7134 10.0174 11.7641 10.0839C11.8148 10.1503 11.8516 10.2262 11.8725 10.3072C11.8933 10.3881 11.8977 10.4724 11.8854 10.5551C11.8731 10.6377 11.8444 10.7171 11.8009 10.7884C11.7574 10.8598 11.7 10.9217 11.6321 10.9705C11.5643 11.0193 11.4873 11.054 11.4059 11.0725C11.1493 11.1387 10.8884 11.1866 10.625 11.2158V15.0992C10.625 15.3717 10.8559 15.5875 11.125 15.5533C11.4284 15.5142 11.7267 15.46 12.02 15.3908C12.1537 15.3592 12.2732 15.2845 12.3601 15.1781C12.447 15.0718 12.4965 14.9398 12.5009 14.8025C12.5175 14.29 12.8742 13.7817 13.4459 13.45C14.7552 12.6921 15.778 11.5234 16.3556 10.1252C16.9333 8.72691 17.0336 7.17715 16.6411 5.71609C16.2485 4.25502 15.385 2.96424 14.1843 2.0438C12.9837 1.12336 11.5129 0.62466 10 0.625Z" fill="#D6F379"/>
<path fill-rule="evenodd" clip-rule="evenodd" d="M7.51086 16.5833C7.52616 16.5026 7.55721 16.4258 7.60222 16.3571C7.64724 16.2884 7.70534 16.2293 7.7732 16.1831C7.84107 16.1369 7.91738 16.1045 7.99776 16.0878C8.07815 16.0711 8.16104 16.0704 8.24169 16.0858C9.40355 16.3062 10.5965 16.3062 11.7584 16.0858C11.84 16.0678 11.9244 16.0664 12.0066 16.0816C12.0888 16.0969 12.1671 16.1284 12.2369 16.1745C12.3067 16.2205 12.3665 16.28 12.4128 16.3496C12.4592 16.4192 12.4911 16.4973 12.5067 16.5795C12.5223 16.6616 12.5213 16.746 12.5037 16.8277C12.4861 16.9094 12.4523 16.9868 12.4043 17.0552C12.3563 17.1236 12.295 17.1817 12.2241 17.2261C12.1533 17.2704 12.0742 17.3 11.9917 17.3133C10.6757 17.563 9.32439 17.563 8.00836 17.3133C7.84563 17.2824 7.70182 17.1881 7.60854 17.0512C7.51525 16.9144 7.48012 16.746 7.51086 16.5833ZM8.12836 18.6199C8.13689 18.5383 8.16141 18.4591 8.20054 18.387C8.23967 18.3148 8.29262 18.2511 8.35639 18.1994C8.42015 18.1477 8.49348 18.1091 8.57217 18.0857C8.65086 18.0624 8.73339 18.0547 8.81503 18.0633C9.60288 18.1456 10.3972 18.1456 11.185 18.0633C11.3499 18.046 11.5149 18.095 11.6436 18.1994C11.7724 18.3038 11.8545 18.4551 11.8717 18.6199C11.8889 18.7848 11.84 18.9498 11.7356 19.0786C11.6312 19.2073 11.4799 19.2894 11.315 19.3066C10.4407 19.3981 9.5593 19.3981 8.68503 19.3066C8.60338 19.2981 8.52422 19.2736 8.45206 19.2344C8.3799 19.1953 8.31615 19.1424 8.26446 19.0786C8.21277 19.0148 8.17414 18.9415 8.15079 18.8628C8.12744 18.7841 8.11981 18.7016 8.12836 18.6199Z" fill="#D6F379"/>
</svg>
