<svg width="48" height="48" viewBox="0 0 48 48" fill="none" xmlns="http://www.w3.org/2000/svg">
<path fill-rule="evenodd" clip-rule="evenodd" d="M24 43.5C34.77 43.5 43.5 34.77 43.5 24C43.5 13.23 34.77 4.5 24 4.5C13.23 4.5 4.5 13.23 4.5 24C4.5 34.77 13.23 43.5 24 43.5ZM15.44 22.94C15.1591 23.2212 15.0013 23.6025 15.0013 24C15.0013 24.3975 15.1591 24.7787 15.44 25.06L21.44 31.06C21.5773 31.2074 21.7429 31.3256 21.9269 31.4076C22.1109 31.4895 22.3096 31.5336 22.511 31.5372C22.7124 31.5407 22.9124 31.5037 23.0992 31.4282C23.286 31.3528 23.4556 31.2405 23.5981 31.0981C23.7405 30.9556 23.8528 30.786 23.9282 30.5992C24.0037 30.4124 24.0407 30.2124 24.0372 30.011C24.0336 29.8095 23.9895 29.6109 23.9076 29.4269C23.8256 29.2429 23.7074 29.0773 23.56 28.94L20.12 25.5L31.5 25.5C31.8978 25.5 32.2794 25.342 32.5607 25.0607C32.842 24.7794 33 24.3978 33 24C33 23.6022 32.842 23.2206 32.5607 22.9393C32.2794 22.658 31.8978 22.5 31.5 22.5L20.12 22.5L23.56 19.06C23.7074 18.9227 23.8256 18.7571 23.9076 18.5731C23.9895 18.3891 24.0336 18.1904 24.0372 17.989C24.0407 17.7876 24.0037 17.5876 23.9282 17.4008C23.8528 17.214 23.7405 17.0444 23.5981 16.9019C23.4556 16.7595 23.286 16.6472 23.0992 16.5718C22.9124 16.4963 22.7124 16.4593 22.511 16.4628C22.3096 16.4664 22.1109 16.5105 21.9269 16.5924C21.7429 16.6744 21.5773 16.7926 21.44 16.94L15.44 22.94Z" fill="#142038"/>
</svg>
