<svg width="32" height="32" viewBox="0 0 32 32" fill="none" xmlns="http://www.w3.org/2000/svg">
<path fill-rule="evenodd" clip-rule="evenodd" d="M16 2C14.1435 2 12.363 2.7375 11.0503 4.05025C9.7375 5.36301 9 7.14348 9 9V13C7.93913 13 6.92172 13.4214 6.17157 14.1716C5.42143 14.9217 5 15.9391 5 17V26C5 27.0609 5.42143 28.0783 6.17157 28.8284C6.92172 29.5786 7.93913 30 9 30H23C24.0609 30 25.0783 29.5786 25.8284 28.8284C26.5786 28.0783 27 27.0609 27 26V17C27 15.9391 26.5786 14.9217 25.8284 14.1716C25.0783 13.4214 24.0609 13 23 13V9C23 5.13333 19.8667 2 16 2ZM21 13V9C21 7.67392 20.4732 6.40215 19.5355 5.46447C18.5979 4.52678 17.3261 4 16 4C14.6739 4 13.4021 4.52678 12.4645 5.46447C11.5268 6.40215 11 7.67392 11 9V13H21Z" fill="#D6F379"/>
</svg>
