<svg width="48" height="48" viewBox="0 0 48 48" fill="none" xmlns="http://www.w3.org/2000/svg">
<path fill-rule="evenodd" clip-rule="evenodd" d="M24 4.5C13.23 4.5 4.5 13.23 4.5 24C4.5 34.77 13.23 43.5 24 43.5C34.77 43.5 43.5 34.77 43.5 24C43.5 13.23 34.77 4.5 24 4.5ZM32.56 25.06C32.8409 24.7787 32.9987 24.3975 32.9987 24C32.9987 23.6025 32.8409 23.2213 32.56 22.94L26.56 16.94C26.4227 16.7926 26.2571 16.6744 26.0731 16.5924C25.8891 16.5105 25.6905 16.4664 25.489 16.4628C25.2876 16.4593 25.0876 16.4963 24.9008 16.5718C24.714 16.6472 24.5444 16.7595 24.4019 16.9019C24.2595 17.0444 24.1472 17.214 24.0718 17.4008C23.9963 17.5876 23.9593 17.7876 23.9628 17.989C23.9664 18.1904 24.0105 18.3891 24.0924 18.5731C24.1744 18.7571 24.2926 18.9227 24.44 19.06L27.88 22.5H16.5C16.1022 22.5 15.7206 22.658 15.4393 22.9393C15.158 23.2206 15 23.6022 15 24C15 24.3978 15.158 24.7794 15.4393 25.0607C15.7206 25.342 16.1022 25.5 16.5 25.5H27.88L24.44 28.94C24.2926 29.0773 24.1744 29.2429 24.0924 29.4269C24.0105 29.6109 23.9664 29.8095 23.9628 30.011C23.9593 30.2124 23.9963 30.4124 24.0718 30.5992C24.1472 30.786 24.2595 30.9556 24.4019 31.0981C24.5444 31.2405 24.714 31.3528 24.9008 31.4282C25.0876 31.5037 25.2876 31.5407 25.489 31.5372C25.6905 31.5336 25.8891 31.4895 26.0731 31.4076C26.2571 31.3256 26.4227 31.2074 26.56 31.06L32.56 25.06Z" fill="#142038"/>
</svg>
