<svg width="32" height="32" viewBox="0 0 32 32" fill="none" xmlns="http://www.w3.org/2000/svg">
<path fill-rule="evenodd" clip-rule="evenodd" d="M16.688 2.89343C16.5022 2.71731 16.256 2.61914 16 2.61914C15.744 2.61914 15.4978 2.71731 15.312 2.89343C12.4817 5.58127 8.71216 7.0552 4.80933 7.0001C4.59671 6.99733 4.38874 7.06242 4.21563 7.1859C4.04251 7.30938 3.91327 7.48483 3.84666 7.68676C3.28396 9.40165 2.99815 11.1953 2.99999 13.0001C2.99999 20.9228 8.41866 27.5774 15.7507 29.4641C15.9142 29.5063 16.0858 29.5063 16.2493 29.4641C23.5813 27.5774 29 20.9228 29 13.0001C29 11.1468 28.7027 9.3601 28.1533 7.68676C28.0869 7.48458 27.9578 7.30884 27.7847 7.1851C27.6115 7.06137 27.4034 6.99609 27.1907 6.99876L27 7.0001C23.0053 7.0001 19.3773 5.4401 16.688 2.89343ZM20.8133 13.5814C20.8933 13.4748 20.9512 13.3533 20.9836 13.224C21.0159 13.0947 21.0221 12.9603 21.0018 12.8286C20.9815 12.6969 20.935 12.5705 20.8651 12.457C20.7953 12.3435 20.7034 12.2451 20.595 12.1676C20.4866 12.0901 20.3637 12.0351 20.2337 12.0057C20.1037 11.9764 19.9692 11.9733 19.838 11.9967C19.7068 12.0201 19.5815 12.0695 19.4697 12.142C19.3579 12.2145 19.2616 12.3086 19.1867 12.4188L14.872 18.4588L12.7067 16.2934C12.5171 16.1168 12.2664 16.0206 12.0073 16.0252C11.7482 16.0298 11.501 16.1347 11.3178 16.3179C11.1346 16.5012 11.0297 16.7483 11.0251 17.0074C11.0205 17.2665 11.1167 17.5172 11.2933 17.7068L14.2933 20.7068C14.396 20.8093 14.5197 20.8883 14.656 20.9383C14.7922 20.9882 14.9377 21.0079 15.0823 20.996C15.227 20.9841 15.3673 20.9408 15.4935 20.8692C15.6197 20.7976 15.7289 20.6994 15.8133 20.5814L20.8133 13.5814Z" fill="#D6F379"/>
</svg>
