<svg width="32" height="32" viewBox="0 0 32 32" fill="none" xmlns="http://www.w3.org/2000/svg">
<path fill-rule="evenodd" clip-rule="evenodd" d="M21 5.99997C20.9999 5.07013 21.3238 4.16932 21.9159 3.45239C22.5081 2.73547 23.3315 2.24724 24.2446 2.07163C25.1577 1.89602 26.1034 2.044 26.9192 2.49015C27.735 2.93629 28.3699 3.65271 28.7148 4.51625C29.0596 5.37978 29.0928 6.33647 28.8087 7.22184C28.5246 8.10721 27.9409 8.86594 27.158 9.36759C26.3751 9.86923 25.4419 10.0825 24.5188 9.97059C23.5957 9.85873 22.7404 9.42877 22.1 8.75464L10.872 14.9933C11.0435 15.6535 11.0435 16.3465 10.872 17.0066L22.1 23.2453C22.771 22.5398 23.6763 22.1033 24.6461 22.0175C25.6159 21.9318 26.5838 22.2027 27.3681 22.7795C28.1525 23.3563 28.6996 24.1994 28.9068 25.1508C29.114 26.1021 28.9671 27.0963 28.4936 27.9471C28.0202 28.7978 27.2527 29.4467 26.335 29.7721C25.4174 30.0974 24.4126 30.0769 23.509 29.7144C22.6054 29.3518 21.865 28.6722 21.4267 27.8028C20.9883 26.9334 20.8822 25.934 21.128 24.992L9.9 18.7546C9.34914 19.3346 8.63703 19.7361 7.85566 19.9073C7.07429 20.0785 6.25955 20.0115 5.51666 19.7149C4.77377 19.4183 4.13686 18.9058 3.68818 18.2436C3.23951 17.5814 2.99969 16.7999 2.99969 16C2.99969 15.2001 3.23951 14.4185 3.68818 13.7563C4.13686 13.0941 4.77377 12.5816 5.51666 12.2851C6.25955 11.9885 7.07429 11.9215 7.85566 12.0926C8.63703 12.2638 9.34914 12.6653 9.9 13.2453L21.128 7.00664C21.0428 6.67788 20.9998 6.3396 21 5.99997Z" fill="white"/>
</svg>
