<svg width="20" height="20" viewBox="0 0 20 20" fill="none" xmlns="http://www.w3.org/2000/svg">
<path fill-rule="evenodd" clip-rule="evenodd" d="M9.99999 5.62504C9.99981 4.94171 10.1597 4.26783 10.4668 3.65742C10.774 3.04701 11.2199 2.51703 11.7687 2.10995C12.3175 1.70287 12.9541 1.43002 13.6274 1.31325C14.3007 1.19648 14.992 1.23905 15.6458 1.43754C15.7492 1.46885 15.8426 1.5264 15.9171 1.60458C15.9916 1.68277 16.0446 1.77891 16.0708 1.88366C16.0971 1.9884 16.0958 2.09816 16.067 2.20224C16.0382 2.30632 15.983 2.40117 15.9067 2.47754L13.14 5.24338C13.1925 5.63921 13.37 6.02171 13.6742 6.32588C13.9783 6.63004 14.3608 6.80754 14.7575 6.85921L17.5225 4.09338C17.5989 4.01704 17.6937 3.96179 17.7978 3.93301C17.9019 3.90424 18.0116 3.90292 18.1164 3.92919C18.2211 3.95546 18.3173 4.00842 18.3955 4.0829C18.4736 4.15739 18.5312 4.25086 18.5625 4.35421C18.7702 5.03825 18.8071 5.76277 18.6699 6.46437C18.5328 7.16598 18.2259 7.82329 17.7759 8.37881C17.326 8.93433 16.7468 9.37113 16.0889 9.65099C15.4311 9.93086 14.7148 10.0453 14.0025 9.98421C13.1542 9.91254 12.4442 10.0675 12.0783 10.5125L6.11999 17.75C5.87602 18.0448 5.57318 18.2855 5.23086 18.4565C4.88854 18.6275 4.51428 18.7251 4.13204 18.7431C3.74981 18.7611 3.36802 18.6991 3.01113 18.5611C2.65425 18.423 2.33012 18.2119 2.05951 17.9414C1.7889 17.6708 1.57777 17.3468 1.43964 16.9899C1.30151 16.633 1.23942 16.2513 1.25735 15.869C1.27528 15.4868 1.37284 15.1125 1.54377 14.7702C1.7147 14.4278 1.95524 14.1249 2.24999 13.8809L9.48666 7.92171C9.93082 7.55504 10.0867 6.84588 10.015 5.99754C10.0048 5.87364 9.99979 5.74936 9.99999 5.62504ZM3.43082 15.9375C3.43082 15.7718 3.49667 15.6128 3.61388 15.4956C3.73109 15.3784 3.89006 15.3125 4.05582 15.3125H4.06249C4.22825 15.3125 4.38722 15.3784 4.50443 15.4956C4.62164 15.6128 4.68749 15.7718 4.68749 15.9375V15.9442C4.68749 16.11 4.62164 16.2689 4.50443 16.3862C4.38722 16.5034 4.22825 16.5692 4.06249 16.5692H4.05582C3.89006 16.5692 3.73109 16.5034 3.61388 16.3862C3.49667 16.2689 3.43082 16.11 3.43082 15.9442V15.9375Z" fill="#D6F379"/>
<path d="M8.39668 7.2L6.56252 5.36666V4.06166C6.56251 3.95376 6.53457 3.8477 6.48141 3.7538C6.42826 3.6599 6.3517 3.58136 6.25918 3.52583L3.13418 1.65083C3.01466 1.57918 2.87462 1.54953 2.73632 1.56659C2.59801 1.58365 2.46938 1.64645 2.37085 1.745L1.74585 2.37C1.6473 2.46852 1.58451 2.59716 1.56745 2.73546C1.55039 2.87377 1.58003 3.01381 1.65168 3.13333L3.52668 6.25833C3.58222 6.35084 3.66075 6.4274 3.75465 6.48056C3.84855 6.53371 3.95462 6.56166 4.06252 6.56166H5.36585L7.08418 8.27999L8.39668 7.19916V7.2Z" fill="#D6F379"/>
<path fill-rule="evenodd" clip-rule="evenodd" d="M10.4633 14.4409L13.9492 17.9259C14.2103 18.187 14.5204 18.3942 14.8616 18.5356C15.2028 18.6769 15.5686 18.7496 15.9379 18.7496C16.3072 18.7496 16.673 18.6769 17.0142 18.5356C17.3554 18.3942 17.6655 18.187 17.9267 17.9259C18.1878 17.6647 18.395 17.3547 18.5363 17.0134C18.6777 16.6722 18.7504 16.3065 18.7504 15.9371C18.7504 15.5678 18.6777 15.2021 18.5363 14.8608C18.395 14.5196 18.1878 14.2095 17.9267 13.9484L15.1717 11.1942C14.7494 11.2541 14.3216 11.2661 13.8967 11.23C13.5683 11.2017 13.3283 11.225 13.1742 11.265C13.1254 11.2754 13.0784 11.2931 13.035 11.3175L10.4633 14.4409ZM13.3083 13.3075C13.4255 13.1905 13.5844 13.1248 13.75 13.1248C13.9156 13.1248 14.0745 13.1905 14.1917 13.3075L15.7542 14.8709C15.8156 14.9281 15.8648 14.9971 15.899 15.0738C15.9331 15.1504 15.9515 15.2332 15.953 15.3171C15.9545 15.401 15.939 15.4844 15.9076 15.5622C15.8762 15.64 15.8294 15.7107 15.77 15.7701C15.7107 15.8294 15.64 15.8762 15.5621 15.9076C15.4843 15.9391 15.401 15.9545 15.317 15.953C15.2331 15.9516 15.1504 15.9332 15.0737 15.899C14.997 15.8649 14.928 15.8156 14.8708 15.7542L13.3083 14.1917C13.1913 14.0745 13.1255 13.9157 13.1255 13.75C13.1255 13.5844 13.1913 13.4256 13.3083 13.3084V13.3075Z" fill="#D6F379"/>
</svg>
