<svg width="109" height="109" viewBox="0 0 109 109" fill="none" xmlns="http://www.w3.org/2000/svg">
<g opacity="0.2">
<path d="M15.6877 37.6583C20.7782 31.6784 26.3606 25.9635 32.5297 21.1001C36.8254 17.7128 38.3014 17.5425 40.6669 16.8991C41.3103 16.7287 41.878 16.3313 42.4268 15.934C65.4568 -0.321429 94.8073 11.2031 100.484 39.8912C104.25 58.9284 94.5424 77.8331 77.8518 85.5539C77.5868 85.6864 77.1894 85.7242 77.057 85.9324C73.7453 91.1175 67.0085 93.1234 62.9021 94.1452C62.0695 94.448 61.4261 95.3185 60.6691 95.8862C60.0825 96.3215 59.4959 96.7946 58.8335 97.0973C37.1282 107.165 13.7953 93.6911 8.68596 71.3991C7.96687 68.2577 4.80662 49.2963 15.6877 37.6583ZM60.8962 84.3428C68.636 84.305 73.6886 83.0371 78.2113 80.5581C99.9735 68.6173 103.228 36.1822 84.0776 20.3432C73.1019 11.2787 59.0606 9.74593 46.7224 18.4319C32.0566 28.7452 26.7391 49.8829 34.9519 65.8544C40.8561 77.3411 50.2233 83.6805 60.8962 84.3428ZM68.2953 89.244C69.2415 88.9034 69.374 88.6574 69.2226 88.5439C69.2226 88.5439 68.8252 88.5439 68.1629 88.5628C51.1316 89.8496 38.3203 83.0749 30.732 67.8036C23.3139 52.8918 25.1117 38.2449 33.8733 24.2225C33.1731 24.5631 32.6054 24.9794 32.0945 25.4525C20.2861 36.1444 16.8042 54.2543 23.6167 69.7338C29.8993 84.0211 43.0891 92.4989 57.9252 91.4392C61.4071 91.1932 64.8323 90.001 68.2953 89.244ZM18.2802 40.1562C18.2992 39.6074 17.7882 40.2886 17.7125 40.3833C17.4476 40.7428 17.1827 41.1213 16.9556 41.4998C13.8332 46.7605 11.8841 52.4565 11.6191 58.5689C10.9946 72.4966 15.8769 84.04 27.6663 91.9123C35.5007 97.1541 44.2056 98.2327 53.3078 95.3942C40.0045 94.0506 29.6344 87.8815 22.6327 76.4895C15.6309 65.1353 14.5144 52.9485 18.2802 40.1562Z" fill="#142038"/>
<path d="M75.2781 52.2864C77.8896 52.381 78.7411 53.7435 77.8896 56.2036C75.7701 62.2591 69.8092 65.2112 63.7347 63.0917C60.1392 61.8239 57.3196 59.5152 55.3705 56.2225C53.8755 53.6867 54.5379 52.2296 57.471 52.0404C60.5366 51.8322 72.4207 52.1728 75.2781 52.2864ZM74.6915 55.2385C69.4686 55.2385 64.3781 55.2385 59.2309 55.2385C64.4538 61.3129 72.1747 61.4265 74.6915 55.2385Z" fill="#142038"/>
<path d="M53.989 41.5568C54.008 44.5089 51.1694 47.196 48.066 47.1771C45.3599 47.1582 43.4675 44.717 43.4486 42.1245C43.4107 39.532 46.0601 36.9773 48.9743 36.9016C51.775 36.807 53.989 38.8507 53.989 41.5568ZM48.312 39.6834C46.9116 39.9104 46.4764 41.2351 46.5899 42.2381C46.7413 43.6952 47.8389 44.0547 48.5201 44.0736C49.1635 44.0926 50.4314 43.4492 50.6963 42.2002C51.037 40.9323 50.3179 39.2103 48.312 39.6834Z" fill="#142038"/>
<path d="M90.1521 42.3513C90.1142 45.2087 88.0894 47.3092 85.3833 47.2903C82.4691 47.2714 80.3686 44.9059 80.4632 41.7457C80.5389 39.0018 82.5826 36.8823 85.1184 36.9391C87.7488 37.0148 90.1899 39.6263 90.1521 42.3513ZM87.5406 42.2756C87.5406 40.8184 86.7647 39.8344 85.5536 39.8344C84.8156 39.8344 83.5667 40.4021 83.5667 41.9539C83.5667 44.6599 85.5536 44.5085 85.5536 44.5085C86.6134 44.4707 87.5406 44.0355 87.5406 42.2756Z" fill="#142038"/>
</g>
</svg>
