<svg width="62" height="66" viewBox="0 0 62 66" fill="none" xmlns="http://www.w3.org/2000/svg">
<path d="M21.5743 23.1641C20.2842 22.1909 19.3425 21.4746 18.4007 20.7717C14.608 17.9197 10.7895 15.0812 7.02253 12.1887C6.1195 11.4993 5.26807 10.6478 4.63594 9.70163C4.27473 9.13394 4.15863 8.12019 4.40373 7.52546C4.54564 7.17403 5.70668 6.9848 6.2614 7.18755C7.61595 7.66063 8.9318 8.30942 10.1702 9.05284C14.0275 11.3912 17.846 13.8107 21.8323 16.2977C22.1935 13.8107 22.5031 11.3371 22.9417 8.89064C23.2771 6.99832 23.7415 5.106 24.2446 3.25423C24.5672 2.05126 25.2509 1.01048 26.6312 1.21323C28.0632 1.41598 28.5276 2.60544 28.5018 3.94358C28.4502 7.93096 28.3212 11.9048 28.2438 15.8922C28.218 16.8384 28.2438 17.7845 28.2438 18.7307C28.3857 18.8659 29.5983 17.7305 30.166 17.1493C35.0165 12.1752 39.8671 7.2281 44.7693 2.30807C45.453 1.61873 46.3173 1.03752 47.1946 0.659052C47.659 0.456304 48.5362 0.604987 48.8458 0.956417C49.1554 1.30785 49.2199 2.22697 49.0006 2.70005C48.5878 3.60566 47.9686 4.43017 47.3107 5.17358C42.989 10.1477 38.6416 15.0947 34.307 20.0553C33.8297 20.596 33.3524 21.1637 32.6428 21.9882C35.8938 21.7449 38.8222 21.4746 41.7506 21.3124C47.6461 21.0015 53.5545 20.7447 59.45 20.4743C59.8112 20.4608 60.1982 20.4608 60.5079 20.5284C62.5332 20.9744 62.3526 23.0965 60.8304 23.3669C58.9727 23.7048 57.1021 24.1238 55.2187 24.3265C48.4717 25.0294 41.7248 25.6512 34.9778 26.3135C34.8359 26.327 34.7069 26.3811 34.2812 26.5027C36.1389 28.0301 37.8546 29.4358 39.5704 30.828C42.8084 33.4773 46.0851 36.086 49.2715 38.7893C50.123 39.5192 50.8712 40.4788 51.413 41.4791C51.9935 42.5334 51.3872 43.439 50.2778 43.1551C48.9232 42.7902 47.53 42.209 46.3818 41.3844C40.783 37.3835 35.2616 33.261 29.7144 29.179C29.0952 28.7194 28.476 28.2599 27.573 27.5705C27.3795 30.6388 27.2247 33.3962 27.0182 36.1535C26.399 44.3581 25.7798 52.5626 25.1348 60.7672C25.0574 61.6728 24.8897 62.5919 24.6317 63.457C24.2833 64.6464 23.5093 65.4304 22.258 65.3358C21.084 65.2412 20.4003 64.4167 20.1939 63.2542C20.0004 62.1459 19.8972 61.0105 19.9101 59.8886C19.9875 52.5626 20.1036 45.2502 20.2068 37.9242C20.2197 37.3835 20.2068 36.8564 20.2068 35.9238C19.6134 36.5185 19.2006 36.9105 18.8007 37.3295C14.3371 42.0062 9.87353 46.6965 5.39707 51.3732C4.89395 51.9003 4.32633 52.4275 3.68131 52.7248C3.24269 52.9276 2.46867 52.9141 2.13325 52.6302C1.79784 52.3464 1.72044 51.5489 1.72044 51.0758C1.73334 49.589 2.49447 48.9267 3.16529 48.0751C7.11283 43.0605 11.1249 38.0864 15.1627 33.1393C16.6205 31.3552 18.2072 29.6926 20.0778 27.6111C16.5818 28.0301 13.5502 28.4356 10.5186 28.7329C7.60305 29.0168 4.68754 29.1925 1.75914 29.4088C1.44953 29.4358 1.12702 29.3817 0.843207 29.3412C-0.640347 29.152 0.198184 27.5029 0.623899 27.3948C3.5523 26.6379 6.50651 25.908 9.47362 25.3403C12.9954 24.705 20.7744 23.448 21.5743 23.1641Z" fill="#FF782C"/>
</svg>
