<svg width="153" height="45" viewBox="0 0 153 45" fill="none" xmlns="http://www.w3.org/2000/svg">
<path opacity="0.2" d="M0.948827 9.06811C0.357848 8.48756 0.34939 7.53785 0.929936 6.94687C1.51048 6.35589 2.46019 6.34744 3.05117 6.92798L0.948827 9.06811ZM37.0669 28.8611L36.6669 30.3068L37.0669 28.8611ZM66.196 25.6191L65.2474 24.4571L66.196 25.6191ZM70.3687 19.2857L71.8607 19.4405L71.8405 19.6349L71.7713 19.8176L70.3687 19.2857ZM64.1306 6.21755L63.1727 7.37183L64.1306 6.21755ZM50.7598 1.58153L50.8148 0.0825447L50.7598 1.58153ZM36.8563 6.65784L37.8843 7.75018L37.8384 7.79339L37.789 7.83261L36.8563 6.65784ZM52.6177 30.4331L51.7226 31.6368L52.6177 30.4331ZM87.1333 42.7486L87.3503 41.2644L87.1333 42.7486ZM127.368 37.7934L126.936 36.3571L127.368 37.7934ZM148.19 26.9102L148.843 28.2609L148.19 26.9102ZM150.718 23.8032C151.545 23.8528 152.175 24.5634 152.125 25.3903L151.317 38.8661C151.267 39.693 150.556 40.3232 149.729 40.2735C148.903 40.2239 148.272 39.5133 148.322 38.6863L149.041 26.7079L137.063 25.9889C136.236 25.9393 135.605 25.2287 135.655 24.4017C135.705 23.5748 136.415 22.9447 137.242 22.9943L150.718 23.8032ZM3.05117 6.92798C6.30419 10.1236 12.6506 14.6309 19.3953 18.6816C26.15 22.7383 33.0793 26.2014 37.4668 27.4154L36.6669 30.3068C31.8629 28.9776 24.6406 25.3313 17.8507 21.2534C11.0507 17.1695 4.4595 12.5168 0.948827 9.06811L3.05117 6.92798ZM37.4668 27.4154C41.4544 28.5186 46.8372 29.1036 52.0526 28.722C57.3049 28.3378 62.1427 26.9918 65.2474 24.4571L67.1447 26.781C63.3424 29.8851 57.7766 31.3113 52.2715 31.714C46.7296 32.1194 41.0013 31.506 36.6669 30.3068L37.4668 27.4154ZM65.2474 24.4571C66.001 23.8419 66.5898 23.2661 67.1509 22.455C67.723 21.628 68.3033 20.5019 68.9662 18.7539L71.7713 19.8176C71.0584 21.6975 70.3764 23.0655 69.6181 24.1617C68.8487 25.274 68.039 26.0509 67.1447 26.781L65.2474 24.4571ZM68.8767 19.1309C69.1509 16.4885 68.7087 14.4112 67.7573 12.5986C66.7893 10.7543 65.2466 9.09293 63.1727 7.37183L65.0885 5.06326C67.3053 6.90293 69.184 8.86172 70.4136 11.2043C71.6598 13.5787 72.1913 16.255 71.8607 19.4405L68.8767 19.1309ZM63.1727 7.37183C59.4023 4.24285 55.9168 3.27189 50.7048 3.08053L50.8148 0.0825447C56.4802 0.290553 60.6688 1.3954 65.0885 5.06326L63.1727 7.37183ZM50.7048 3.08053C46.0178 2.90844 41.3215 4.51541 37.8843 7.75018L35.8283 5.5655C39.8968 1.73659 45.3931 -0.116519 50.8148 0.0825447L50.7048 3.08053ZM37.789 7.83261C37.2068 8.29486 36.9476 8.80929 36.874 9.40004C36.7939 10.0431 36.9252 10.8763 37.3385 11.9101C38.1715 13.9935 39.9639 16.4412 42.1782 18.9015C46.5758 23.7877 52.2038 28.2562 53.5127 29.2293L51.7226 31.6368C50.3306 30.6017 44.5301 25.9994 39.9483 20.9084C37.6729 18.3802 35.5879 15.6127 34.5529 13.0239C34.0322 11.7216 33.7319 10.3544 33.897 9.02902C34.0688 7.65132 34.7319 6.42922 35.9236 5.48307L37.789 7.83261ZM53.5127 29.2293C63.7991 36.8778 74.6847 39.4127 87.3503 41.2644L86.9163 44.2329C74.1227 42.3624 62.6241 39.7425 51.7226 31.6368L53.5127 29.2293ZM87.3503 41.2644C101.098 43.2744 113.252 40.4766 126.936 36.3571L127.801 39.2298C114.035 43.3737 101.349 46.343 86.9163 44.2329L87.3503 41.2644ZM126.936 36.3571C130.6 35.2542 133.897 33.4716 137.226 31.485C140.511 29.5244 143.899 27.3173 147.538 25.5596L148.843 28.2609C145.362 29.9421 142.186 32.0188 138.763 34.0611C135.384 36.0774 131.83 38.0169 127.801 39.2298L126.936 36.3571ZM147.538 25.5596C148.515 25.0876 148.913 24.8166 149.633 24.1782L151.623 26.4228C150.689 27.251 150.059 27.6734 148.843 28.2609L147.538 25.5596Z" fill="#142038"/>
</svg>
