<svg width="147" height="66" viewBox="0 0 147 66" fill="none" xmlns="http://www.w3.org/2000/svg">
<path d="M1.62469 2.93248C0.822613 3.13976 0.340433 3.958 0.547711 4.76008C0.75499 5.56215 1.57323 6.04433 2.37531 5.83705L1.62469 2.93248ZM42.8003 3.85029L43.1767 2.39829L42.8003 3.85029ZM66.4059 21.2225L65.0034 21.7545L66.4059 21.2225ZM66.8529 28.7937L68.2224 29.4056L68.3021 29.2272L68.3335 29.0344L66.8529 28.7937ZM54.9164 36.992L54.664 35.5134L54.9164 36.992ZM41.019 34.3215L40.3171 35.6472L41.019 34.3215ZM31.5164 22.9736L32.9528 22.5416L32.9347 22.4812L32.9115 22.4226L31.5164 22.9736ZM57.0537 10.2643L56.8804 8.77435L57.0537 10.2643ZM93.1029 16.8565L92.5487 18.2504L93.1029 16.8565ZM125.47 41.2654L124.377 42.2931L125.47 41.2654ZM138.06 61.1014L139.301 60.2579L138.06 61.1014ZM138.696 65.0562C139.437 65.4266 140.338 65.1263 140.709 64.3853L146.746 52.3106C147.117 51.5696 146.816 50.6686 146.075 50.2981C145.334 49.9276 144.433 50.228 144.063 50.9689L138.696 61.7021L127.963 56.3355C127.222 55.965 126.321 56.2653 125.951 57.0063C125.58 57.7473 125.88 58.6483 126.621 59.0188L138.696 65.0562ZM2.37531 5.83705C6.7903 4.6961 14.5401 3.96588 22.4065 3.83018C30.2846 3.69427 38.0171 4.15981 42.4239 5.30228L43.1767 2.39829C38.3518 1.14738 30.274 0.694011 22.3548 0.830625C14.4239 0.967441 6.38937 1.70116 1.62469 2.93248L2.37531 5.83705ZM42.4239 5.30228C46.4288 6.34061 51.3829 8.52545 55.7088 11.4636C60.0654 14.4225 63.582 18.007 65.0034 21.7545L67.8084 20.6906C66.0676 16.1013 61.9606 12.0832 57.3944 8.98187C52.7977 5.85982 47.53 3.52693 43.1767 2.39829L42.4239 5.30228ZM65.0034 21.7545C65.3484 22.6641 65.5705 23.4572 65.6508 24.4401C65.7327 25.4424 65.6723 26.7078 65.3723 28.553L68.3335 29.0344C68.6561 27.0499 68.7494 25.5242 68.6408 24.1957C68.5307 22.8477 68.2179 21.7701 67.8084 20.6906L65.0034 21.7545ZM65.4834 28.1818C64.3996 30.6073 62.978 32.1852 61.2477 33.2792C59.4873 34.3924 57.3206 35.0598 54.664 35.5134L55.1689 38.4706C58.0085 37.9858 60.6149 37.2288 62.8511 35.8148C65.1175 34.3817 66.9159 32.3296 68.2224 29.4056L65.4834 28.1818ZM54.664 35.5134C49.8342 36.338 46.3303 35.4361 41.7208 32.9958L40.3171 35.6472C45.3275 38.2997 49.5073 39.4372 55.1689 38.4706L54.664 35.5134ZM41.7208 32.9958C37.5757 30.8014 34.3121 27.0616 32.9528 22.5416L30.0799 23.4056C31.6889 28.7558 35.5223 33.1087 40.3171 35.6472L41.7208 32.9958ZM32.9115 22.4226C32.6384 21.7311 32.6712 21.156 32.9028 20.6076C33.1549 20.0106 33.6852 19.3547 34.5601 18.666C36.3231 17.2783 39.0993 16.0547 42.2471 15.0312C48.4986 12.9984 55.6069 11.9427 57.2269 11.7543L56.8804 8.77435C55.1574 8.9747 47.8329 10.0602 41.3194 12.1782C38.0847 13.23 34.8953 14.5842 32.7045 16.3087C31.6025 17.1762 30.6588 18.21 30.1391 19.4404C29.599 20.7194 29.5623 22.1094 30.1212 23.5246L32.9115 22.4226ZM57.2269 11.7543C69.9594 10.2737 80.6542 13.5212 92.5487 18.2504L93.6571 15.4626C81.6423 10.6857 70.3742 7.20531 56.8804 8.77435L57.2269 11.7543ZM92.5487 18.2504C105.46 23.3837 114.586 31.8833 124.377 42.2931L126.563 40.2377C116.713 29.766 107.211 20.8517 93.6571 15.4626L92.5487 18.2504ZM124.377 42.2931C126.999 45.0801 128.963 48.2723 130.852 51.6574C132.717 54.998 134.548 58.6033 136.82 61.9449L139.301 60.2579C137.127 57.0618 135.415 53.675 133.472 50.195C131.554 46.7595 129.445 43.3025 126.563 40.2377L124.377 42.2931ZM136.82 61.9449C137.43 62.8421 137.64 63.2759 137.944 64.1889L140.79 63.2402C140.395 62.0559 140.06 61.3747 139.301 60.2579L136.82 61.9449Z" fill="#FF782C"/>
</svg>
