<svg width="79" height="68" viewBox="0 0 79 68" fill="none" xmlns="http://www.w3.org/2000/svg">
<path d="M59.8941 55.9269C61.9778 57.1089 63.7406 57.9562 65.3001 59.0612C66.1279 59.6495 67.1965 60.6795 67.1614 61.4734C67.1242 62.3001 66.0405 63.3808 65.1506 63.8085C62.5498 65.0629 59.8201 66.1255 57.0963 67.0897C56.5078 67.2984 55.4348 67.2154 54.9242 66.5867C54.313 66.0704 55.4973 64.8772 56.0864 64.5502C58.3442 63.3216 60.7364 62.3049 63.2795 61.1195C61.817 60.2899 60.5854 59.6252 59.3708 58.9023C56.1283 56.9613 55.888 54.7565 58.8163 52.4163C62.9558 49.1016 67.1893 45.8911 71.3861 42.6257C71.892 42.2346 72.3721 41.8287 72.8597 41.4101C73.6908 40.8474 73.4748 40.657 72.6766 40.8994C71.147 41.3881 69.6119 41.8567 68.0822 42.3454C65.3645 43.2113 62.6522 44.0973 59.929 44.9432C59.3146 45.1372 58.621 45.2016 58.0235 45.3374C56.9714 45.5713 56.0401 44.9244 55.5887 44.3123C55.2055 43.7897 54.9309 43.0236 55.6886 41.9105C57.3024 39.6046 59.0901 37.4142 60.8831 35.2439C64.9186 30.3442 68.9854 25.4793 72.8939 20.355C70.8762 21.3807 68.8326 22.3916 66.8462 23.452C62.4516 25.7912 58.1122 28.2127 53.6883 30.4845C52.174 31.2701 50.439 32.49 48.7666 30.931C47.1957 29.4635 48.199 27.7268 48.801 26.2032C50.7134 21.4218 52.7369 16.6863 54.7085 11.9215C54.9054 11.4397 55.03 10.934 55.3589 9.93371C52.4836 11.6258 49.9176 12.9678 47.5561 14.5783C42.5821 17.9623 37.6928 21.4959 32.774 24.9621C29.4992 27.2753 27.6747 26.5625 27.1478 22.5844C26.4807 17.6114 25.9899 12.6026 25.4046 7.60809C25.2938 6.6806 25.081 5.77998 24.8152 4.32365C24.2254 5.20983 23.8488 5.67442 23.5962 6.19236C20.6757 12.1314 17.7681 18.0777 14.8531 24.0368C14.0878 25.6033 13.5748 27.5334 11.527 27.8468C9.38446 28.1744 8.49932 26.3329 7.42484 24.9604C6.31354 23.5332 5.258 22.0698 3.77576 20.6864C3.77972 22.2655 3.79117 23.8318 3.79513 25.4108C3.7967 26.7002 3.89835 27.9956 3.77396 29.2644C3.73299 29.7159 3.12332 30.4891 2.83058 30.4587C2.30433 30.4145 1.77608 30.4031 1.36861 29.5107C1.19049 29.1384 1.11498 28.6208 1.10965 28.16C1.01459 25.0034 0.832395 21.8483 0.957893 18.6981C1.00101 17.7731 1.7169 16.4667 2.48226 16.104C3.12313 15.8063 4.57925 16.4119 5.20288 17.0539C6.80454 18.6745 8.1492 20.5562 9.59448 22.3255C10.0683 22.8994 10.5271 23.4988 11.1741 24.3066C11.9164 22.8966 12.5167 21.7282 13.1375 20.5544C16.3444 14.4217 19.5512 8.28912 22.7711 2.16383C22.9972 1.74958 23.2622 1.35735 23.5586 0.999868C24.5891 -0.195815 26.1853 -0.239826 26.98 1.10954C27.7085 2.3366 28.2841 3.76514 28.4927 5.17204C29.2533 10.3677 29.8376 15.599 30.4831 20.8142C30.5492 21.3772 30.6431 21.9222 30.7564 22.6985C34.336 20.2191 37.6651 17.7841 41.1157 15.5536C45.2355 12.889 49.4345 10.354 53.6464 7.82634C54.9252 7.05973 56.3301 5.87298 57.8931 7.03083C59.4561 8.18869 59.0069 9.95149 58.4757 11.4134C56.8013 16.0248 54.9492 20.5861 53.1767 25.1588C52.8842 25.8914 52.5843 26.6368 52.561 27.6748C55.5578 26.1873 58.5545 24.6997 61.5458 23.192C65.9453 20.9912 70.3264 18.763 74.7314 16.5822C75.7811 16.0586 76.9742 15.3791 78.0184 16.48C79.081 17.6084 78.5305 18.8389 77.7659 19.8464C74.6423 23.9578 71.4984 28.0746 68.2658 32.1072C65.6503 35.354 62.8945 38.4872 60.3367 42.1057C62.5047 41.4705 64.6379 40.7477 66.8332 40.2127C69.6002 39.5273 72.3965 38.9094 75.2087 38.47C76.0676 38.3299 77.6064 38.6772 77.8099 39.1826C78.0994 39.9233 77.7594 41.3241 77.1543 41.9134C74.9201 44.0709 72.5012 46.0727 70.0659 48.0144C66.901 50.6104 63.6386 53.0493 59.8941 55.9269Z" fill="#FF782C"/>
</svg>
