<svg width="77" height="64" viewBox="0 0 77 64" fill="none" xmlns="http://www.w3.org/2000/svg">
<path d="M59.6615 53.3113C61.7345 54.5114 63.4822 55.3861 65.0422 56.4872C65.8703 57.0732 66.9497 58.0789 66.9461 58.8079C66.9419 59.567 65.9291 60.5038 65.0797 60.8499C62.5975 61.8651 59.9824 62.6968 57.3694 63.4384C56.8048 63.5989 55.7577 63.4649 55.2366 62.8586C54.622 62.3505 55.7284 61.3155 56.289 61.046C58.4384 60.0362 60.7268 59.2285 63.1555 58.2737C61.7005 57.4314 60.4766 56.7533 59.267 56.0226C56.0372 54.0615 55.7185 52.0187 58.4775 50.0214C62.3775 47.1919 66.3729 44.4633 70.3305 41.6824C70.8077 41.3494 71.2592 41.0015 71.7174 40.6423C72.5044 40.1688 72.2869 39.982 71.5196 40.1623C70.0501 40.5301 68.5745 40.8791 67.105 41.2469C64.4941 41.8982 61.8893 42.5683 59.2722 43.2009C58.6819 43.3465 58.0095 43.3685 57.4334 43.4615C56.4187 43.6204 55.4876 42.9748 55.0248 42.387C54.6318 41.8853 54.3352 41.1652 55.0294 40.1811C56.5109 38.1448 58.1658 36.2242 59.8268 34.3223C63.5644 30.0279 67.3339 25.7673 70.9394 21.2594C69.0157 22.0954 67.0662 22.9164 65.1743 23.786C60.9886 25.7038 56.8598 27.7001 52.6429 29.5542C51.1998 30.1961 49.5587 31.2261 47.8714 29.701C46.2864 28.2656 47.1957 26.7206 47.7227 25.3502C49.3992 21.0507 51.1855 16.7996 52.9203 12.5186C53.0933 12.0856 53.195 11.6267 53.4765 10.7235C50.7441 12.127 48.2991 13.2247 46.0635 14.5807C41.3543 17.4291 36.7332 20.42 32.0809 23.347C28.9837 25.3009 27.181 24.5467 26.515 20.8559C25.6743 16.2416 25.0038 11.6039 24.2418 6.97417C24.0983 6.11431 23.8565 5.27372 23.5417 3.91865C23.002 4.70286 22.6535 5.11038 22.4277 5.57367C19.8149 10.8847 17.215 16.2032 14.6084 21.533C13.9241 22.9342 13.4994 24.6836 11.5189 24.8622C9.44694 25.0488 8.51476 23.3058 7.41641 21.9846C6.28013 20.6109 5.19672 19.2069 3.70122 17.8538C3.76592 19.3077 3.83741 20.7504 3.90211 22.2043C3.95333 23.3916 4.10214 24.5896 4.03001 25.7511C4.00754 26.1646 3.44414 26.8437 3.15813 26.8C2.6444 26.731 2.12998 26.6922 1.69912 25.8487C1.51147 25.4964 1.41805 25.0158 1.39512 24.5913C1.18099 21.68 0.882137 18.7654 0.882855 15.8719C0.889166 15.0226 1.53537 13.8583 2.26608 13.5654C2.87817 13.3258 4.31828 13.9614 4.94981 14.586C6.57065 16.164 7.9515 17.9687 9.4259 19.6752C9.90902 20.229 10.3786 20.8055 11.0392 21.5839C11.7071 20.3256 12.2462 19.2821 12.805 18.2348C15.6889 12.7608 18.5728 7.28692 21.4696 1.82044C21.6737 1.45119 21.9164 1.10431 22.191 0.791096C23.1476 -0.254404 24.699 -0.209224 25.5242 1.07576C26.2803 2.24458 26.8954 3.59069 27.1526 4.89718C28.0929 9.72147 28.863 14.5691 29.692 19.4052C29.778 19.9272 29.8904 20.4339 30.0305 21.1548C33.4178 19.0642 36.5632 17.0011 39.8346 15.1329C43.7405 12.9008 47.7283 10.7923 51.7291 8.69135C52.9438 8.05421 54.265 7.03703 55.8304 8.18694C57.3958 9.33686 57.0267 10.9357 56.5661 12.2531C55.1147 16.4087 53.4883 20.5088 51.94 24.6235C51.6836 25.2824 51.4205 25.9525 51.4378 26.9069C54.2963 25.6982 57.1548 24.4896 60.0071 23.2621C64.203 21.4721 68.3799 19.6558 72.5818 17.8846C73.583 17.4589 74.7177 16.8973 75.7762 17.967C76.8535 19.0628 76.3653 20.1662 75.6602 21.0527C72.7794 24.6702 69.879 28.2916 66.8892 31.8308C64.4695 34.6796 61.9088 37.4162 59.5596 40.6104C61.6445 40.1419 63.6922 39.591 65.8076 39.2164C68.4734 38.7339 71.1704 38.3151 73.8897 38.0616C74.7199 37.9787 76.2306 38.381 76.448 38.8572C76.7583 39.5547 76.4814 40.8262 75.9154 41.3362C73.8247 43.2026 71.5483 44.9158 69.2536 46.5727C66.2743 48.7928 63.1939 50.8631 59.6615 53.3113Z" fill="#FF782C"/>
</svg>
