<svg width="147" height="66" viewBox="0 0 147 66" fill="none" xmlns="http://www.w3.org/2000/svg">
<path d="M145.375 2.92947C146.175 3.13715 146.656 3.95694 146.45 4.76055C146.243 5.56415 145.426 6.04724 144.625 5.83957L145.375 2.92947ZM104.355 3.85004L103.979 2.39529L104.355 3.85004ZM80.8386 21.2223L82.2384 21.7553L80.8386 21.2223ZM80.3933 28.7935L79.0264 29.4065L78.9469 29.2278L78.9156 29.0346L80.3933 28.7935ZM92.2845 36.9918L92.5364 35.5104L92.2845 36.9918ZM106.129 34.3213L106.83 35.6495L106.129 34.3213ZM115.596 22.9733L114.162 22.5405L114.18 22.48L114.203 22.4213L115.596 22.9733ZM90.1553 10.2641L90.3282 8.77128L90.1553 10.2641ZM54.243 16.8563L54.7961 18.2528L54.243 16.8563ZM21.9988 41.2652L23.0893 42.2949L21.9988 41.2652ZM9.4561 61.1011L8.21807 60.2561L9.4561 61.1011ZM8.82404 65.0585C8.08448 65.4296 7.18518 65.1287 6.81541 64.3864L0.789521 52.2887C0.419733 51.5463 0.719506 50.6436 1.45906 50.2724C2.19861 49.9012 3.09791 50.2021 3.46768 50.9445L8.82404 61.698L19.5367 56.3212C20.2763 55.95 21.1756 56.251 21.5454 56.9933C21.9151 57.7357 21.6154 58.6384 20.8758 59.0096L8.82404 65.0585ZM144.625 5.83957C140.228 4.6987 132.507 3.96849 124.671 3.83278C116.823 3.69688 109.12 4.16242 104.73 5.3048L103.979 2.39529C108.786 1.14427 116.833 0.690917 124.723 0.827531C132.623 0.964348 140.628 1.69807 145.375 2.92947L144.625 5.83957ZM104.73 5.3048C100.741 6.34303 95.8059 8.52773 91.4967 11.4657C87.1569 14.4245 83.6542 18.0086 82.2384 21.7553L79.4388 20.6893C81.1732 16.0992 85.2653 12.0807 89.8143 8.97927C94.3938 5.85704 99.6418 3.52401 103.979 2.39529L104.73 5.3048ZM82.2384 21.7553C81.8948 22.6647 81.6737 23.4575 81.5937 24.4401C81.5121 25.4421 81.5723 26.7072 81.8711 28.5523L78.9156 29.0346C78.5942 27.0499 78.5011 25.524 78.6093 24.1952C78.7191 22.8469 79.0308 21.769 79.4388 20.6893L82.2384 21.7553ZM81.7602 28.1804C82.8396 30.6054 84.2556 32.1828 85.9787 33.2766C87.732 34.3895 89.8901 35.0568 92.5364 35.5104L92.0325 38.4732C89.2035 37.9883 86.6065 37.2313 84.3784 35.817C82.1201 34.3836 80.3281 32.331 79.0264 29.4065L81.7602 28.1804ZM92.5364 35.5104C97.347 36.3348 100.837 35.4332 105.429 32.9931L106.83 35.6495C101.838 38.3022 97.6733 39.4399 92.0325 38.4732L92.5364 35.5104ZM105.429 32.9931C109.557 30.7989 112.808 27.0597 114.162 22.5405L117.029 23.4061C115.426 28.7571 111.607 33.1107 106.83 35.6495L105.429 32.9931ZM114.203 22.4213C114.475 21.7305 114.442 21.1562 114.212 20.6085C113.961 20.0121 113.433 19.3565 112.562 18.668C110.806 17.2806 108.041 16.0572 104.905 15.0336C98.6773 13.0009 91.5962 11.9452 89.9824 11.7569L90.3282 8.77128C92.0448 8.97164 99.3418 10.0572 105.831 12.1753C109.053 13.2271 112.231 14.5814 114.414 16.3062C115.512 17.1739 116.452 18.2081 116.97 19.4391C117.509 20.7188 117.545 22.1095 116.988 23.5254L114.203 22.4213ZM89.9824 11.7569C77.2989 10.2764 66.6454 13.5237 54.7961 18.2528L53.6898 15.4597C65.6591 10.6827 76.885 7.20215 90.3282 8.77128L89.9824 11.7569ZM54.7961 18.2528C41.9347 23.3858 32.8435 31.8851 23.0893 42.2949L20.9082 40.2355C30.7206 29.7637 40.1863 20.8491 53.6898 15.4597L54.7961 18.2528ZM23.0893 42.2949C20.4781 45.0815 18.5219 48.2735 16.6392 51.6585C14.7814 54.999 12.9579 58.6045 10.6941 61.9462L8.21807 60.2561C10.3831 57.0601 12.0893 53.6735 14.0248 50.1934C15.9355 46.7578 18.0362 43.3006 20.9082 40.2355L23.0893 42.2949ZM10.6941 61.9462C10.0865 62.8432 9.87788 63.2768 9.57481 64.1895L6.73418 63.239C7.12753 62.0545 7.4614 61.3731 8.21807 60.2561L10.6941 61.9462Z" fill="#FF782C"/>
</svg>
