<svg width="53" height="36" viewBox="0 0 53 36" fill="none" xmlns="http://www.w3.org/2000/svg">
<path d="M48.6582 31.8182C46.5316 33.9394 43.9494 35 40.9114 35C37.8734 35 35.2911 33.9394 33.1646 31.8182C31.1392 29.596 30.0253 26.9697 29.8228 23.9394C29.7215 23.2323 29.6709 22.3232 29.6709 21.2121C29.6709 18.2828 30.1266 15.5051 31.038 12.8788C33.1168 7.40467 36.7659 3.53101 41.9854 1.2578C42.9308 0.84605 43.7085 2.0721 43.1232 2.92108C41.3449 5.50049 40.4557 8.31468 40.4557 11.3636C40.4557 11.5657 40.4557 11.8182 40.4557 12.1212C40.557 12.4242 40.6076 12.6768 40.6076 12.8788H40.9114C43.9494 12.8788 46.5316 13.9394 48.6582 16.0606C50.8861 18.1818 52 20.8081 52 23.9394C52 26.9697 50.8861 29.596 48.6582 31.8182ZM12.2405 35C9.3038 35 6.77215 33.9394 4.64557 31.8182C2.51899 29.596 1.35443 26.9697 1.1519 23.9394C1.05063 23.2323 1 22.3737 1 21.3636C1 18.2323 1.50633 15.404 2.51899 12.8788C3.63291 9.94949 5.40506 7.32323 7.83544 5C9.47427 3.4307 11.3253 2.17886 13.3884 1.24448C14.3233 0.821102 15.0855 2.02493 14.5083 2.87349C12.7939 5.39393 11.9367 8.17348 11.9367 11.2121C11.9367 11.9192 11.9873 12.4747 12.0886 12.8788H12.2405C15.2785 12.8788 17.8608 13.9394 19.9873 16.0606C22.2152 18.1818 23.3291 20.8081 23.3291 23.9394C23.3291 26.9697 22.2152 29.596 19.9873 31.8182C17.8608 33.9394 15.2785 35 12.2405 35Z" stroke="#FF782C" stroke-width="2"/>
</svg>
