<svg width="104" height="62" viewBox="0 0 104 62" fill="none" xmlns="http://www.w3.org/2000/svg">
<path d="M81.5334 8.64905L82.5 5.34396L83.4666 8.64905C85.142 14.3781 89.6219 18.858 95.351 20.5334L98.656 21.5L95.351 22.4666C89.6219 24.142 85.142 28.6219 83.4666 34.351L82.5 37.656L81.5334 34.351C79.858 28.6219 75.3781 24.142 69.649 22.4666L66.344 21.5L69.649 20.5334C75.3781 18.858 79.858 14.3781 81.5334 8.64905Z" stroke="#FF782C" stroke-width="3"/>
<path d="M5.25993 46C10.2867 44.2422 14.2422 40.2867 16 35.2599C17.7578 40.2867 21.7133 44.2422 26.7401 46C21.7133 47.7578 17.7578 51.7133 16 56.7401C14.2422 51.7133 10.2867 47.7578 5.25993 46Z" stroke="#FF782C" stroke-width="3"/>
</svg>
